<svg xmlns="http://www.w3.org/2000/svg" version="1.1" xmlns:xlink="http://www.w3.org/1999/xlink" xmlns:svgjs="http://svgjs.com/svgjs" width="542.17383" height="103.82422"><svg shape-rendering="geometricPrecision" text-rendering="geometricPrecision" image-rendering="optimizeQuality" fill-rule="evenodd" clip-rule="evenodd" viewBox="0 0 542.17383 103.82422" version="1.1" id="SvgjsSvg1009" sodipodi:docname="nextjs-extra-icon.svg" width="542.17383" height="103.82422" inkscape:version="1.1.2 (0a00cf5339, 2022-02-04)" xmlns:inkscape="http://www.inkscape.org/namespaces/inkscape" xmlns:sodipodi="http://sodipodi.sourceforge.net/DTD/sodipodi-0.dtd" xmlns="http://www.w3.org/2000/svg" xmlns:svg="http://www.w3.org/2000/svg">
  <defs id="SvgjsDefs1008"></defs>
  <sodipodi:namedview id="SvgjsSodipodi:namedview1007" pagecolor="#ffffff" bordercolor="#666666" borderopacity="1.0" inkscape:pageshadow="2" inkscape:pageopacity="0.0" inkscape:pagecheckerboard="0" showgrid="false" fit-margin-top="0" fit-margin-left="0" fit-margin-right="0" fit-margin-bottom="0" inkscape:zoom="1.4142136" inkscape:cx="366.38538" inkscape:cy="13.7205" inkscape:window-width="2560" inkscape:window-height="1403" inkscape:window-x="1440" inkscape:window-y="0" inkscape:window-maximized="1" inkscape:current-layer="svg866"></sodipodi:namedview>
  <g id="SvgjsG1006" style="fill:#d45500" transform="translate(-100.50977,0.60352)">
    <g id="SvgjsG1005" style="fill:#d45500">
      <g id="SvgjsG1004" style="fill:#d45500">
        <path id="SvgjsPath1003" d="m 572.16406,-0.60352 -34,103.0586 h 17.68946 l 30,-81.0293 37.2207,81.07031 19.60937,-0.0195 L 594.27344,-0.60352 Z M 100.50977,0.0390625 V 16.5 h 0.01 v 86.52344 c 0,0 69.66209,0.0762 89.16992,0.0762 V 86.640625 H 118.19922 V 59.439453 h 57.49023 V 42.980469 H 118.19922 V 16.5 h 71.49023 V 0.0390625 Z m 235.84961,0 V 16.5 h 36.11132 v 86.59961 h 17.68946 V 16.5 h 35.3789 V 0.0390625 Z M 211.07031,0.08984375 293.99023,103.14062 h 23.20899 L 275.74023,51.650391 317.14062,0.16015625 293.99023,0.19921875 264.15039,37.259766 234.2207,0.08984375 Z M 246.38086,59.279297 211.00977,103.2207 h 23.21093 l 23.75977,-29.521481 z" sodipodi:nodetypes="cccccccccccccccccccccccccccccccccccccccccccccc" style="fill:#d45500"></path>
      </g>
    </g>
    <g id="SvgjsG1002" transform="translate(60,139)" style="fill:#d45500">
      <path id="SvgjsPath1001" style="font-size:12px;fill:#d45500;fill-opacity:1;fill-rule:evenodd;stroke:none;stroke-width:0.352714mm;stroke-linecap:round;stroke-opacity:1" d="m 450.8457,-62.789062 h -18.99023 l 27.22656,26.21875 h 19.09766 v -0.140626 z" sodipodi:nodetypes="cccccc"></path>
      <path id="SvgjsPath1000" style="font-size:12px;fill:#d45500;fill-opacity:1;fill-rule:evenodd;stroke:none;stroke-width:0.352714mm;stroke-linecap:round;stroke-opacity:1" d="m 390.80273,-138.01172 v 101.441408 h 16.92774 v -32.810547 c 0,0 36.14974,0 54.22461,0 10.52969,0.214196 16.61796,-9.017067 16.92969,-21.931641 v -25.01758 c 0,-3.10388 -0.7529,-10.67725 -2.25782,-13.2168 -1.50491,-2.53955 -3.55015,-4.58477 -6.13672,-6.13671 -2.58657,-1.55196 -5.43127,-2.32813 -8.53515,-2.32813 z m 64.77735,16.17774 c 0.58964,-0.004 1.17565,0.0869 1.73633,0.26953 0.8111,0.27561 1.54497,0.73973 2.14257,1.35351 0.017,0.0168 0.034,0.0337 0.0508,0.0508 1.02255,1.00968 1.59058,2.39315 1.57226,3.83008 v 25.01758 c 0,0.04656 -9.3e-4,0.09407 -0.002,0.140625 -0.0107,1.394519 -0.59745,2.722856 -1.6211,3.669922 -1.08166,1.034623 -2.37399,1.550781 -3.8789,1.550781 h -47.87891 l 0.0293,-35.878908 c 0,0 32.59759,0.0204 47.84961,-0.004 z" sodipodi:nodetypes="ccccccsssscsccccsccsccss"></path>
    </g>
  </g>
</svg><style>@media (prefers-color-scheme: light) { :root { filter: none; } }
</style></svg>