<svg xmlns="http://www.w3.org/2000/svg" viewBox="0 0 542 104">
  <g fill="#d45500">
    <path d="m472 0-34 103h17l30-81 38 81h19L494 0ZM0 1v103h89V87H18V60h57V44H18V17h71V1Zm236 0v16h36v87h18V17h35V1ZM111 1l82 103h24l-42-52 42-51h-24l-29 37-30-37Zm35 59-35 44h23l23-30z"/>
    <g font-size="12">
      <path d="M410 77h-19l28 26h19z"/>
      <path d="M350 2v101h17V70h54c11 0 17-9 17-22V23c0-3 0-10-2-13-1-2-3-5-6-6-3-2-5-2-9-2zm65 16h2a5 5 0 0 1 2 1l2 4v25l-2 4-4 2h-48V18h48z"/>
    </g>
  </g>
</svg>
